<svg width="76" height="52" viewBox="0 0 76 52" fill="none" xmlns="http://www.w3.org/2000/svg">
<path d="M34.9503 0.000756488C44.1706 -0.0498076 50.645 2.42783 54.5404 9.41888C57.4641 14.6644 57.3085 20.3341 55.7365 25.9358C53.9979 32.1332 50.4205 37.3633 46.1027 42.0635C43.5325 44.8599 40.7021 47.4277 37.9074 50.0131C36.1687 51.6223 33.8987 51.5036 32.4757 49.9163C31.0461 48.3225 31.3418 46.0801 33.2027 44.5016C37.9229 40.5026 42.2096 36.1189 45.5091 30.8691C48.1215 26.714 49.8491 22.3105 49.3688 17.2871C48.8263 11.6129 44.9643 7.79203 39.208 7.39411C37.6028 7.28199 35.9753 7.37433 34.3656 7.47106C28.5448 7.82061 24.7717 12.9386 24.5538 17.9246C24.3804 21.873 25.3698 25.4213 28.049 28.4376C28.2913 28.7102 28.4981 29.018 28.7026 29.3214C29.7899 30.9372 29.5364 32.9444 28.0979 34.1447C26.5949 35.4 24.5205 35.3143 23.1064 33.8238C20.0893 30.6448 18.2217 26.8855 17.4924 22.5765C15.985 13.6641 20.0182 5.25063 27.8266 1.83206C30.468 0.675678 33.4851 0.361301 34.9503 0.000756488Z" fill="#FF7642"/>
<path d="M36.6467 37.2775C36.3888 37.7391 36.0864 38.6889 35.4639 39.3374C32.2534 42.6812 28.9939 45.9789 25.6855 49.2282C23.9002 50.9825 21.5189 50.7143 19.9181 48.7116C14.2485 41.6238 8.58117 34.5338 2.91381 27.4461C2.2557 26.6216 1.58202 25.8104 0.943915 24.9728C-0.447912 23.1459 -0.283391 20.9914 1.3241 19.7119C2.98051 18.3951 5.24391 18.7336 6.70021 20.5473C11.9229 27.0525 17.1567 33.5511 22.3327 40.0937C23.1087 41.0742 23.5822 41.1511 24.4516 40.23C26.3725 38.1942 28.3691 36.2288 30.3746 34.2722C31.5419 33.1334 32.9448 32.863 34.4567 33.5291C35.8641 34.1491 36.4866 35.3165 36.6467 37.2797V37.2775Z" fill="#FF7642"/>
<path d="M75.2644 20.5584C74.8997 21.319 74.6618 22.1808 74.1482 22.8293C67.2958 31.4758 60.41 40.0937 53.5198 48.7116C52.0368 50.5671 49.8757 50.91 48.1726 49.6129C46.4851 48.3269 46.2805 46.1702 47.7813 44.2795C54.6404 35.6397 61.5217 27.0152 68.4141 18.3995C69.5725 16.9507 71.1778 16.5044 72.7253 17.0738C74.1571 17.6015 75.0709 18.9249 75.2666 20.5606L75.2644 20.5584Z" fill="#FF7642"/>
</svg>
