<svg width="22" height="19" viewBox="0 0 22 19" fill="none" xmlns="http://www.w3.org/2000/svg">
<path fill-rule="evenodd" clip-rule="evenodd" d="M8 0.75C8 0.335786 8.33579 0 8.75 0H12.75C13.2141 0 13.6592 0.184375 13.9874 0.512563C14.3156 0.840752 14.5 1.28587 14.5 1.75V3H18.073C18.788 3 19.4325 3.43512 19.6976 4.10111L20.6356 6.44546C20.6432 6.46264 20.6503 6.48017 20.6566 6.49801L21.3038 8.11547C21.4324 8.43855 21.5 8.78465 21.5 9.135V10.75V15.083C21.5 15.5471 21.3156 15.9922 20.9874 16.3204C20.6592 16.6486 20.2141 16.833 19.75 16.833H18.5706C18.5478 16.9096 18.521 16.9851 18.4903 17.0592C18.373 17.3423 18.2011 17.5996 17.9843 17.8163C17.7676 18.0331 17.5103 18.205 17.2272 18.3223C16.944 18.4396 16.6405 18.4999 16.334 18.4999C16.0275 18.4999 15.724 18.4396 15.4409 18.3223C15.1577 18.205 14.9004 18.0331 14.6837 17.8163C14.467 17.5996 14.295 17.3423 14.1778 17.0592C14.1587 17.0133 14.1412 16.9669 14.1252 16.92H7.54303C7.52717 16.9664 7.50983 17.0124 7.49102 17.0579C7.37389 17.341 7.20214 17.5983 6.98558 17.8151C6.76902 18.0318 6.51188 18.2038 6.22886 18.3212C5.94583 18.4386 5.64245 18.4991 5.33605 18.4992C5.02965 18.4993 4.72622 18.4391 4.44309 18.322C4.15996 18.2049 3.90267 18.0331 3.68592 17.8165C3.4301 17.5609 3.23973 17.2521 3.12563 16.916H1.75C1.28587 16.916 0.84075 16.7316 0.512563 16.4034C0.184375 16.0752 0 15.6301 0 15.166V11.75V9.75C0 9.33579 0.335786 9 0.75 9C1.16421 9 1.5 9.33579 1.5 9.75V11H13V3.75V1.75C13 1.6837 12.9737 1.62011 12.9268 1.57322C12.8799 1.52634 12.8163 1.5 12.75 1.5H8.75C8.33579 1.5 8 1.16421 8 0.75ZM18.3047 4.6576L18.8418 6H16.75C16.3358 6 16 6.33579 16 6.75V10.75C16 11.1642 16.3358 11.5 16.75 11.5H20V15.083C20 15.1493 19.9737 15.2129 19.9268 15.2598C19.8799 15.3067 19.8163 15.333 19.75 15.333H18.5142C18.5065 15.3129 18.4985 15.2928 18.4903 15.2729C18.373 14.9897 18.2011 14.7324 17.9843 14.5157C17.7676 14.299 17.5103 14.127 17.2272 14.0098C16.944 13.8925 16.6405 13.8321 16.334 13.8321C16.0275 13.8321 15.724 13.8925 15.4409 14.0098C15.1577 14.127 14.9004 14.299 14.6837 14.5157C14.467 14.7324 14.295 14.9897 14.1778 15.2729C14.1577 15.3213 14.1393 15.3704 14.1225 15.42H7.54575C7.52894 15.3702 7.51042 15.3208 7.49022 15.2721C7.37284 14.9891 7.20086 14.732 6.98411 14.5154L6.98325 14.5146C6.54557 14.0777 5.95237 13.8325 5.33397 13.8328C4.71516 13.833 4.12181 14.0791 3.68445 14.5169C3.42934 14.7722 3.23949 15.0806 3.12562 15.416H1.75C1.6837 15.416 1.62011 15.3897 1.57322 15.3428C1.52634 15.2959 1.5 15.2323 1.5 15.166V12.5H13.75C14.1642 12.5 14.5 12.1642 14.5 11.75V4.5H18.073C18.1757 4.5 18.2669 4.56248 18.304 4.65596L18.3047 4.6576ZM20 9.135V10H17.5V7.5H19.4419L19.9104 8.671C19.9696 8.81978 20 8.97752 20 9.135ZM16.0149 15.3956C16.1161 15.3537 16.2245 15.3321 16.334 15.3321C16.4435 15.3321 16.552 15.3537 16.6531 15.3956C16.7543 15.4375 16.8462 15.4989 16.9237 15.5763L16.9237 15.5764C17.0011 15.6538 17.0625 15.7457 17.1045 15.8469C17.1464 15.9481 17.1679 16.0565 17.1679 16.166C17.1679 16.2755 17.1464 16.384 17.1045 16.4851C17.0625 16.5863 17.0011 16.6782 16.9237 16.7557C16.8462 16.8331 16.7543 16.8945 16.6531 16.9365C16.552 16.9784 16.4435 16.9999 16.334 16.9999C16.2245 16.9999 16.1161 16.9784 16.0149 16.9365C15.9137 16.8945 15.8218 16.8331 15.7443 16.7557C15.6669 16.6782 15.6055 16.5863 15.5636 16.4851C15.5217 16.384 15.5001 16.2755 15.5001 16.166C15.5001 16.0565 15.5217 15.9481 15.5636 15.8469C15.6055 15.7457 15.6669 15.6538 15.7443 15.5763C15.8218 15.4989 15.9137 15.4375 16.0149 15.3956ZM5.33464 15.3328C5.55562 15.3327 5.76759 15.4204 5.92392 15.5765C6.00132 15.6539 6.06274 15.7457 6.10466 15.8468C6.14658 15.9478 6.16818 16.0562 6.16822 16.1656C6.16827 16.275 6.14677 16.3834 6.10494 16.4845C6.06312 16.5856 6.00178 16.6775 5.92445 16.7549C5.84711 16.8323 5.75528 16.8937 5.65421 16.9356C5.55314 16.9775 5.44481 16.9991 5.33538 16.9992C5.22597 16.9992 5.11761 16.9777 5.0165 16.9359C4.91539 16.8941 4.82351 16.8327 4.74611 16.7554C4.58978 16.5992 4.5019 16.3873 4.5018 16.1663C4.5017 15.9454 4.58939 15.7334 4.74558 15.5771C4.90177 15.4207 5.11366 15.3329 5.33464 15.3328ZM0.75 0C0.335786 0 0 0.335786 0 0.75C0 1.16421 0.335786 1.5 0.75 1.5H5.75C6.16421 1.5 6.5 1.16421 6.5 0.75C6.5 0.335786 6.16421 0 5.75 0H0.75ZM0 3.75C0 3.33579 0.335786 3 0.75 3H3.75C4.16421 3 4.5 3.33579 4.5 3.75C4.5 4.16421 4.16421 4.5 3.75 4.5H0.75C0.335786 4.5 0 4.16421 0 3.75ZM0.75 6C0.335786 6 0 6.33579 0 6.75C0 7.16421 0.335786 7.5 0.75 7.5H1.75C2.16421 7.5 2.5 7.16421 2.5 6.75C2.5 6.33579 2.16421 6 1.75 6H0.75Z" fill="#858585"/>
</svg>
