<svg
  width="22"
  height="19"
  viewBox="0 0 22 19"
  fill="currentColor"
  xmlns="http://www.w3.org/2000/svg"
>
  <path
    fill-rule="evenodd"
    clip-rule="evenodd"
    d="M8 0.75C8 0.335786 8.33579 0 8.75 0H12.75C13.2141 0 13.6592 0.184375 13.9874 0.512563C14.3156 0.840752 14.5 1.28587 14.5 1.75V3H18.073C18.788 3 19.4325 3.43512 19.6976 4.10111L21.3038 8.11547C21.4324 8.43855 21.5 8.78465 21.5 9.135V15.083C21.5 15.5471 21.3156 15.9922 20.9874 16.3204C20.6592 16.6486 20.2141 16.833 19.75 16.833H1.75C1.28587 16.833 0.84075 16.6486 0.512563 16.3204C0.184375 15.9922 0 15.5471 0 15.083V9.75C0 9.33579 0.335786 9 0.75 9H13V3.75V1.75C13 1.6837 12.9737 1.62011 12.9268 1.57322C12.8799 1.52634 12.8163 1.5 12.75 1.5H8.75C8.33579 1.5 8 1.16421 8 0.75Z"
    fill="currentColor"
  />
</svg>
