<svg width="24" height="24" viewBox="0 0 24 24" fill="none" xmlns="http://www.w3.org/2000/svg">
<path fill-rule="evenodd" clip-rule="evenodd" d="M5.29133 6.52781C5.43374 6.35208 5.64784 6.25 5.87403 6.25H18.5C19.6393 6.25 20.4739 7.31984 20.1976 8.4249L18.8496 13.8169C18.5679 14.9425 17.6109 15.7707 16.4557 15.8863C16.4557 15.8863 16.4557 15.8863 16.4557 15.8863L9.6397 16.5683C8.24376 16.707 6.9657 15.7742 6.67531 14.4014C6.67529 14.4013 6.67533 14.4015 6.67531 14.4014L5.14031 7.15543C5.09344 6.93416 5.14893 6.70354 5.29133 6.52781ZM6.79955 7.75L8.14275 14.0906C8.27445 14.7135 8.85459 15.1387 9.49036 15.0757L16.3064 14.3937C16.8311 14.3413 17.2661 13.9654 17.3944 13.4531C17.3944 13.4532 17.3944 13.453 17.3944 13.4531L18.7424 8.0611C18.7822 7.90216 18.6628 7.75 18.5 7.75H6.79955Z" fill="white"/>
<path fill-rule="evenodd" clip-rule="evenodd" d="M2.75 4C2.75 3.58579 3.08579 3.25 3.5 3.25H5.224C5.57701 3.25 5.88224 3.49618 5.95699 3.84118L6.60699 6.84118C6.6947 7.24601 6.43764 7.64528 6.03282 7.73299C5.62799 7.8207 5.22872 7.56364 5.14101 7.15882L4.6191 4.75H3.5C3.08579 4.75 2.75 4.41421 2.75 4Z" fill="white"/>
<path fill-rule="evenodd" clip-rule="evenodd" d="M8.69727 18.517C9.31438 18.5171 9.81446 19.0171 9.81446 19.6342C9.81436 20.2502 9.3143 20.7503 8.69825 20.7504C8.0873 20.7504 7.58102 20.2554 7.58301 19.6332C7.58089 19.0132 8.08494 18.517 8.69727 18.517ZM17.1143 18.517C17.7314 18.5171 18.2315 19.017 18.2315 19.6342C18.2314 20.2503 17.7313 20.7503 17.1152 20.7504C16.5043 20.7504 15.998 20.2554 16 19.6332C15.9979 19.0132 16.5019 18.517 17.1143 18.517Z" fill="white"/>
</svg>
