<svg width="24" height="20" viewBox="0 0 24 20" fill="none" xmlns="http://www.w3.org/2000/svg">
<path d="M18.72 10.1592C18.72 9.66281 18.6755 9.18554 18.5927 8.72736H12V11.4351H15.7673C15.605 12.3101 15.1118 13.0514 14.3705 13.5478V15.3042H16.6327C17.9564 14.0855 18.72 12.291 18.72 10.1592Z" fill="#5454FF"/>
<path d="M12 17.0002C13.89 17.0002 15.4746 16.3734 16.6328 15.3043L14.3705 13.5479C13.7437 13.9679 12.9418 14.2161 12 14.2161C10.1768 14.2161 8.63366 12.9847 8.0832 11.3302H5.74457V13.1438C6.89639 15.4316 9.26366 17.0002 12 17.0002Z" fill="#34A853"/>
<path d="M8.08318 11.3302C7.94318 10.9102 7.86364 10.4616 7.86364 10.0002C7.86364 9.53884 7.94318 9.0902 8.08318 8.6702V6.85657H5.74455C5.25455 7.83202 4.99957 8.90859 5 10.0002C5 11.1297 5.27046 12.1988 5.74455 13.1438L8.08318 11.3302Z" fill="#FBBC05"/>
<path d="M12 5.78409C13.0277 5.78409 13.9505 6.13727 14.6759 6.83091L16.6837 4.82318C15.4714 3.69364 13.8868 3 12 3C9.26366 3 6.89639 4.56864 5.74457 6.85636L8.0832 8.67C8.63366 7.01545 10.1768 5.78409 12 5.78409Z" fill="#EA4335"/>
</svg>
