<svg width="53" height="54" viewBox="0 0 53 54" fill="none" xmlns="http://www.w3.org/2000/svg">
<g clip-path="url(#clip0_4028_13092)">
<path d="M24.2917 33.0612V37.4694C24.2917 38.6816 23.2979 39.6735 22.0833 39.6735C20.8688 39.6735 19.875 38.6816 19.875 37.4694V33.0612C19.875 31.849 20.8688 30.8571 22.0833 30.8571C23.2979 30.8571 24.2917 31.849 24.2917 33.0612ZM19.875 48.4898H11.0417C7.39792 48.4898 4.41667 45.5143 4.41667 41.8776V28.6531C4.41667 25.0163 7.39792 22.0408 11.0417 22.0408H33.125C35.1567 22.0408 37.0338 22.9445 38.2925 24.5094C39.0433 25.4571 40.4567 25.6114 41.4063 24.84C42.3558 24.0686 42.5104 22.68 41.7596 21.7323C40.6113 20.3216 39.1758 19.2416 37.5638 18.5363V15.4065C37.5638 6.89878 30.6296 -0.0220337 22.1054 -0.0220337C13.5813 -0.0220337 6.625 6.92082 6.625 15.4286V18.5584C2.73833 20.2555 0 24.1347 0 28.6531V41.8776C0 47.9608 4.94667 52.898 11.0417 52.898H19.875C21.0896 52.898 22.0833 51.9061 22.0833 50.6939C22.0833 49.4816 21.0896 48.4898 19.875 48.4898ZM11.0417 15.4286C11.0417 9.34531 15.9883 4.40817 22.0833 4.40817C28.1783 4.40817 33.125 9.34531 33.125 15.4286V17.6327H11.0417V15.4286Z" fill="white"/>
<path d="M49.8781 37.6562C51.0927 37.6562 52.0864 36.6644 52.0864 35.4521C52.0864 34.2399 51.0927 33.248 49.8781 33.248H47.736L47.9789 31.3085C48.1335 30.0962 47.2723 28.9942 46.0577 28.8619C44.8431 28.6856 43.7389 29.5672 43.5843 30.7795L43.2973 33.248H36.3852L36.606 31.3085C36.7606 30.0962 35.8993 28.9942 34.6848 28.8619C33.4702 28.6856 32.366 29.5672 32.2335 30.7795L31.9243 33.248H28.8989C27.6843 33.248 26.6906 34.2399 26.6906 35.4521C26.6906 36.6644 27.6843 37.6562 28.8989 37.6562H31.3943L30.5993 44.2685H27.7948C26.5802 44.2685 25.5864 45.2603 25.5864 46.4725C25.5864 47.6848 26.5802 48.6766 27.7948 48.6766H30.0693L29.8485 50.6162C29.6939 51.8285 30.4227 53.1068 32.0348 53.0848C33.1389 53.0848 34.0885 52.2693 34.221 51.1452L34.5302 48.6766H41.4423L41.1993 50.6162C41.0668 51.8285 41.906 53.0848 43.4077 53.0848C44.5118 53.0848 45.4614 52.2693 45.5939 51.1452L45.881 48.6766H48.7739C49.9885 48.6766 50.9823 47.6848 50.9823 46.4725C50.9823 45.2603 49.9885 44.2685 48.7739 44.2685H46.411L47.206 37.6562H49.8781ZM41.9723 44.2685H35.0381L35.8331 37.6562H42.7673L41.9723 44.2685Z" fill="#FF7642"/>
</g>
<defs>
<clipPath id="clip0_4028_13092">
<rect width="53" height="54" fill="white"/>
</clipPath>
</defs>
</svg>
