<svg width="24" height="24" viewBox="0 0 24 24" fill="none" xmlns="http://www.w3.org/2000/svg">
<path d="M23 12C22.447 12 22 12.447 22 13V16H15.914L10 10.086V1.99999H11C11.552 1.99999 12 1.55299 12 0.999993C12 0.446993 11.552 -7.08003e-06 11 -7.08003e-06H5C2.243 -7.08003e-06 0 2.24299 0 4.99999V19C0 21.757 2.243 24 5 24H19C21.757 24 24 21.757 24 19V13C24 12.447 23.553 12 23 12ZM5 1.99999H8V9.89999L2 13.099V4.99999C2 3.34599 3.346 1.99999 5 1.99999ZM2 19V15.367L8.817 11.731L14.179 17.093L10.5 21.999H5C3.346 21.999 2 20.654 2 19ZM19 22H13L16 18H22V19C22 20.654 20.654 22 19 22ZM16.451 11.189C17.015 11.742 17.758 12.018 18.5 12.017C19.242 12.017 19.984 11.742 20.549 11.189L22.389 9.38799C23.428 8.34999 24 6.96899 24 5.49899C24 4.02899 23.428 2.64799 22.389 1.60999C21.35 0.570993 19.969 -0.00100708 18.5 -0.00100708C17.031 -0.00100708 15.649 0.570993 14.611 1.60999C13.572 2.64799 13 4.02899 13 5.49899C13 6.96899 13.572 8.34999 14.619 9.39499L16.451 11.188V11.189ZM16.025 3.02499C16.686 2.36399 17.564 1.99999 18.5 1.99999C19.436 1.99999 20.313 2.36399 20.975 3.02499C21.637 3.68599 22 4.56499 22 5.49999C22 6.43499 21.636 7.31299 20.982 7.96699L19.15 9.75999C18.791 10.11 18.209 10.112 17.849 9.75999L16.025 7.97499C15.364 7.31399 15 6.43499 15 5.49999C15 4.56499 15.364 3.68699 16.025 3.02499ZM16.999 5.49399C16.999 4.66599 17.671 3.99399 18.499 3.99399C19.327 3.99399 19.999 4.66599 19.999 5.49399C19.999 6.32199 19.327 6.99399 18.499 6.99399C17.671 6.99399 16.999 6.32199 16.999 5.49399Z" fill="#F86A08"/>
</svg>
