<svg
  width="18"
  height="14"
  viewBox="0 0 18 14"
  xmlns="http://www.w3.org/2000/svg"
>
  <path
    fill-rule="evenodd"
    clip-rule="evenodd"
    d="M5.0022 1.25021C5.0022 0.836 5.33798 0.500214 5.7522 0.500214H16.7568C17.171 0.500214 17.5068 0.836 17.5068 1.25021C17.5068 1.66443 17.171 2.00021 16.7568 2.00021H5.7522C5.33798 2.00021 5.0022 1.66443 5.0022 1.25021Z"
    fill="#FFFFFF"
  />
  <path
    fill-rule="evenodd"
    clip-rule="evenodd"
    d="M5.0022 6.81352C5.0022 6.39931 5.33798 6.06352 5.7522 6.06352H16.7568C17.171 6.06352 17.5068 6.39931 17.5068 6.81352C17.5068 7.22774 17.171 7.56352 16.7568 7.56352H5.7522C5.33798 7.56352 5.0022 7.22774 5.0022 6.81352Z"
    fill="#FFFFFF"
  />
  <path
    fill-rule="evenodd"
    clip-rule="evenodd"
    d="M5.0022 12.3768C5.0022 11.9626 5.33798 11.6268 5.7522 11.6268H16.7568C17.171 11.6268 17.5068 11.9626 17.5068 12.3768C17.5068 12.7911 17.171 13.1268 16.7568 13.1268H5.7522C5.33798 13.1268 5.0022 12.7911 5.0022 12.3768Z"
    fill="#FFFFFF"
  />
  <path
    fill-rule="evenodd"
    clip-rule="evenodd"
    d="M0 1.25021C0 0.559737 0.559737 0 1.25021 0C1.94068 0 2.50042 0.559737 2.50042 1.25021C2.50042 1.94068 1.94068 2.50042 1.25021 2.50042C0.559737 2.50042 0 1.94068 0 1.25021Z"
    fill="#FFFFFF"
  />
  <path
    fill-rule="evenodd"
    clip-rule="evenodd"
    d="M0 6.81353C0 6.12306 0.559737 5.56332 1.25021 5.56332C1.94068 5.56332 2.50042 6.12306 2.50042 6.81353C2.50042 7.504 1.94068 8.06374 1.25021 8.06374C0.559737 8.06374 0 7.504 0 6.81353Z"
    fill="#FFFFFF"
  />
  <path
    fill-rule="evenodd"
    clip-rule="evenodd"
    d="M0 12.3768C0 11.6864 0.559737 11.1266 1.25021 11.1266C1.94068 11.1266 2.50042 11.6864 2.50042 12.3768C2.50042 13.0673 1.94068 13.627 1.25021 13.627C0.559737 13.627 0 13.0673 0 12.3768Z"
    fill="#FFFFFF"
  />
</svg>
