<svg width="21" height="20" viewBox="0 0 21 20" fill="none" xmlns="http://www.w3.org/2000/svg">
<path fill-rule="evenodd" clip-rule="evenodd" d="M10.2538 1.5C9.96855 1.5 9.70794 1.66171 9.58126 1.91731L9.57974 1.92037L7.44385 6.18114C7.33369 6.40089 7.12284 6.55271 6.87951 6.58749L2.14854 7.26378L2.14651 7.26406C1.86141 7.30402 1.62428 7.50352 1.53613 7.77757C1.44797 8.05163 1.52433 8.35196 1.73266 8.55063L1.73398 8.5519L5.1414 11.8173C5.3218 11.9901 5.40426 12.2415 5.36132 12.4877L4.55198 17.1266L4.55159 17.1288C4.50157 17.4105 4.61604 17.6962 4.84677 17.8654C5.0775 18.0346 5.38435 18.0579 5.63799 17.9255L5.64086 17.924L9.90964 15.7191C10.1256 15.6075 10.3822 15.6076 10.5981 15.7191L14.8669 17.9251L14.8697 17.9265C15.1233 18.0589 15.4301 18.0356 15.6609 17.8664C15.8916 17.6972 16.0061 17.4115 15.9561 17.1298L15.9557 17.1276L15.1463 12.4876C15.1034 12.2415 15.1859 11.9901 15.3662 11.8173L18.7737 8.5519L18.775 8.55063C18.9833 8.35196 19.0597 8.05163 18.9715 7.77757C18.8834 7.50352 18.6462 7.30402 18.3611 7.26406L18.3591 7.26378L13.6281 6.58749C13.3848 6.55271 13.174 6.40089 13.0638 6.18114L10.9264 1.91731C10.7997 1.66171 10.5391 1.5 10.2538 1.5ZM8.23809 1.24956C8.61821 0.484143 9.39911 0 10.2538 0C11.1085 0 11.8894 0.484095 12.2695 1.24945C12.2698 1.25004 12.2701 1.25063 12.2704 1.25123L14.2289 5.15812L18.5693 5.77858C18.5697 5.77864 18.5701 5.77869 18.5705 5.77874C19.4248 5.89892 20.1353 6.4969 20.3995 7.31825C20.6636 8.13938 20.4352 9.03918 19.8115 9.63489C19.8115 9.63491 19.8115 9.63488 19.8115 9.63489C19.8111 9.6353 19.8106 9.63575 19.8102 9.63615L16.6927 12.6237L17.433 16.8676C17.433 16.868 17.4331 16.8685 17.4332 16.8689C17.5826 17.7131 17.2393 18.569 16.5479 19.076C15.8566 19.5829 14.9373 19.6531 14.1771 19.2571C14.1766 19.2568 14.1761 19.2565 14.1756 19.2562L10.2537 17.2296L6.3321 19.2552C6.33149 19.2555 6.33087 19.2559 6.33026 19.2562C5.57011 19.6521 4.651 19.5819 3.95975 19.075C3.26827 18.5679 2.92503 17.712 3.07448 16.8678C3.07455 16.8674 3.07462 16.867 3.07469 16.8666L3.81493 12.6237L0.697458 9.63615C0.697179 9.63589 0.6969 9.63562 0.696621 9.63536C0.0725932 9.03964 -0.156013 8.13959 0.108183 7.31825C0.372389 6.49688 1.0829 5.89888 1.93725 5.77873C1.9376 5.77868 1.93795 5.77863 1.9383 5.77858L6.27876 5.15812L8.23809 1.24956Z" fill="#D6D6D6"/>
</svg>
